<svg aria-hidden="true" style="position: absolute; width: 0; height: 0; overflow: hidden;" version="1.1" xmlns="http://www.w3.org/2000/svg" xmlns:xlink="http://www.w3.org/1999/xlink">
<defs>
<symbol id="icon-facebook" viewBox="0 0 32 32">
<path d="M12.135 31.588v-10.64h-3.299v-4.889h3.299v-2.107c0-5.447 2.464-7.971 7.811-7.971 0.535 0 1.273 0.056 1.957 0.137 0.579 0.060 1.096 0.152 1.601 0.277l-0.079-0.017v4.433c-0.252-0.025-0.555-0.042-0.86-0.048l-0.010-0c-0.276-0.008-0.601-0.012-0.927-0.012-0.018 0-0.035 0-0.053 0h0.003c-0.943 0-1.679 0.128-2.233 0.412-0.377 0.192-0.684 0.475-0.9 0.82l-0.006 0.009c-0.344 0.56-0.499 1.327-0.499 2.336v1.729h5.225l-0.897 4.889h-4.328v10.993c7.923-0.957 14.061-7.703 14.061-15.883 0-8.836-7.164-16-16-16s-16 7.164-16 16c0 7.504 5.165 13.8 12.135 15.529z"></path>
</symbol>
<symbol id="icon-telegram" viewBox="0 0 32 32">
<path d="M15.925 0c-8.804 0.042-15.925 7.19-15.925 16 0 0 0 0 0 0v0c0 8.837 7.163 16 16 16v0c8.837 0 16-7.163 16-16v0c0-8.837-7.163-16-16-16v0c-0.011-0-0.024-0-0.037-0s-0.026 0-0.039 0h0.002zM22.541 9.632c0.133-0.003 0.428 0.031 0.62 0.187 0.124 0.108 0.208 0.259 0.228 0.43l0 0.003c0.021 0.124 0.048 0.408 0.027 0.629-0.24 2.531-1.283 8.669-1.813 11.503-0.224 1.2-0.665 1.601-1.093 1.64-0.928 0.087-1.633-0.613-2.533-1.203-1.408-0.924-2.204-1.499-3.571-2.4-1.58-1.040-0.556-1.613 0.344-2.547 0.236-0.245 4.329-3.969 4.409-4.307 0.009-0.043 0.019-0.2-0.075-0.283s-0.232-0.055-0.332-0.032c-0.141 0.032-2.391 1.52-6.748 4.46-0.64 0.44-1.217 0.653-1.736 0.64-0.571-0.011-1.669-0.321-2.487-0.587-1.003-0.327-1.799-0.499-1.729-1.052 0.036-0.288 0.433-0.583 1.191-0.884 4.664-2.032 7.773-3.372 9.331-4.019 4.443-1.848 5.367-2.169 5.968-2.18z"></path>
</symbol>
</defs>
</svg>
